# xmcd
#
# Track frame offsets: 
#        150
#        17306
#        36452
#        55165
#        68448
#        86269
#        103943
#        123708
#        138685
#        153880
#        170843
#        191264
#        201769
#        217051
#        231345
#        246671
#        262546
#        275128
#        288330
#        299680
#        315449
#        328685
#
# Disc length: 4569 seconds
#
# Revision: 0
# Processed by: cddbd v1.5.2PL0 Copyright (c) Steve Scherf et al.
# Submitted via: ExactAudioCopyFreeDBPlugin 1.0
#
DISCID=5111d716
DTITLE=Sammy Kershaw - The Ultimate Collection
DYEAR=2008
DGENRE=Country
TTITLE0=Me And Maxine
TTITLE1=When You Love Someone
TTITLE2=Maybe Not Tonight (Feat Lorrie Morgan)
TTITLE3=One Day Left To Live
TTITLE4=Honky Tonk America
TTITLE5=Matches
TTITLE6=Love Of My Life
TTITLE7=Politics, Religion And Her
TTITLE8=Vidalia
TTITLE9=Meant To Be
TTITLE10=Southbound
TTITLE11=If You're Gonna Walk, I'm Gonna Crawl
TTITLE12=Third Rate Romance
TTITLE13=National Working Woman's Holiday
TTITLE14=I Can't Reach Her Anymore
TTITLE15=Queen Of My Double Wide Trailer
TTITLE16=Haunted Heart
TTITLE17=She Don't Know She's Beautiful
TTITLE18=Anywhere But Here
TTITLE19=Yard Sale
TTITLE20=Cadillac Style
TTITLE21=Don't Go Near The Water
EXTD=
EXTT0=
EXTT1=
EXTT2=
EXTT3=
EXTT4=
EXTT5=
EXTT6=
EXTT7=
EXTT8=
EXTT9=
EXTT10=
EXTT11=
EXTT12=
EXTT13=
EXTT14=
EXTT15=
EXTT16=
EXTT17=
EXTT18=
EXTT19=
EXTT20=
EXTT21=
PLAYORDER=
